<?xml version="1.0" encoding="utf-8"?>
<!-- Generator: Adobe Illustrator 21.1.0, SVG Export Plug-In . SVG Version: 6.00 Build 0)  -->
<svg version="1.1" id="Camada_1" xmlns="http://www.w3.org/2000/svg" xmlns:xlink="http://www.w3.org/1999/xlink" x="0px" y="0px"
	 viewBox="0 0 1920 1080" style="enable-background:new 0 0 1920 1080;" xml:space="preserve">
<style type="text/css">
	.st0{fill:#252525;}
</style>
<g>
	<path class="st0" d="M151,236.5v607.1h1619V236.5H151z M1735.3,808.9H185.6V271.2h1549.7V808.9z"/>
	<path class="st0" d="M534.2,642.5c0.4,0,0.8,0,1.2,0h0.3h21.1h102.5v-33.6h-48.9c2.7-3,5.2-6.1,7.5-9.4l0.2,0.2
		c12.6-17.4,18.7-37.2,18.7-59.7c0-28.4-9.9-52.5-29.6-72.5c-19.7-20.2-43.5-30-71.6-30c0,0,0,0-0.1,0c0,0,0,0-0.1,0
		c-0.5,0-0.9,0-1.4,0c-27.2,0.4-50.7,10.1-70.1,29.9c-17.3,17.3-26.6,37.9-29,61.4c-0.3,2.8-0.5,5.6-0.5,8.4c0,0.9-0.1,1.8-0.1,2.7
		c-0.3,28.2,9.4,52.5,29.3,72.8C483.1,632.5,506.5,642.2,534.2,642.5z M467.5,537.8c1.2-36.1,30.5-65.4,66.6-66.6
		c39.8-1.3,72.4,31.3,71.1,71.1c-1.2,36.1-30.5,65.4-66.6,66.6C498.7,610.1,466.2,577.6,467.5,537.8z"/>
	<path class="st0" d="M785,617.7c16.4,16.7,36.4,24.9,59.4,24.9c0.1,0,0.2,0,0.3,0c0.1,0,0.2,0,0.3,0c23,0,43-8.2,59.4-24.9
		c7.7-7.8,13.5-16.4,17.6-25.8c4.6-10.6,7-22.2,7-34.7V437.5h-33.6v119.7c0,13.8-5.3,25.9-15.2,35.9c-9.8,9.9-21.6,15.1-35.4,15.1
		c-13.8-0.1-25.6-5.2-35.4-15.1c-9.9-10-15.2-22-15.2-35.9V437.5h-33.6v119.7c0,12.5,2.3,24.1,7,34.7
		C771.5,601.3,777.3,609.9,785,617.7z"/>
	<path class="st0" d="M1385.8,642.5c28.1,0,51.6-10.3,71.3-30.2c20-19.7,30.1-43.8,30.1-72.3c0-28.2-10.1-52.3-30.1-72.3
		c-19.7-20-43.2-30.2-71.3-30.2c-28.1,0-51.8,10.3-71.3,30.2c-19.7,20-29.8,44.1-29.8,72.3c0,28.4,10.1,52.3,29.8,72.3
		C1334.2,632.3,1357.7,642.5,1385.8,642.5z M1338,491.9c13.4-13.6,29.3-20,47.8-20c18.5,0,34.4,6.7,47.5,20
		c13.1,13.3,19.7,29.5,19.7,48.2s-6.3,34.9-19.7,48.4c-13.2,13.3-29.1,19.7-47.5,19.7c-18.5,0-34.6-6.4-47.8-19.7
		c-13.1-13.3-19.5-29.7-19.5-48.4S1324.8,505.2,1338,491.9z"/>
	<path class="st0" d="M1181.1,540c0,0-3.6-3-9.9-6.5c8-10.4,12-22.6,12-36.3c0-8.2-1.5-15.9-4.6-23.1c-3-7.4-7.3-13.6-12.6-19
		c-5.3-5.6-11.6-9.7-19-13.1c-7.3-3.1-14.9-4.6-22.8-4.6h-7.6h-68.2H1035h-4.6v24.8v7.2v2.1v0.3h18h1.1h6.4h68.4
		c3.3,0,6.6,0.5,9.6,1.8c3.3,1.3,6.1,3.1,8.3,5.6c2.3,2.3,4,5.1,5.3,8.2c1.3,3.1,2,6.4,2,9.7c0,3.6-0.8,6.9-2,10
		c-1.3,3.1-3,5.9-5.3,8.2c-2.3,2.6-5.1,4.4-8.3,5.6c-0.7,0.4-1.5,0.7-2.3,0.9c-2.4,0.8-4.9,1.1-7.3,1.1h-1.5l0,0l-1.9,0h-4.3h-0.1h0
		h-0.8c0,0,0,0,0,0H1064h-13.4h-20.2V540v17.2h33.6h75.9c3.5,0,6.8,0.8,10.1,2.1c3,1.3,5.6,3.3,7.8,5.6c2.3,2.3,4,5.1,5.3,8.2
		c1.3,3.1,2,6.4,2,9.7c0,3.3-0.8,6.7-2,9.7c-1.3,3.1-3,5.9-5.3,8.2c-2.3,2.6-5.1,4.4-8.3,5.6c-3,1.3-6.3,1.8-9.6,1.8H1069h-3h-2
		h-33.6v0.3v0.4v3.9v29.8h33.6h68.2h7.6c8.1,0,15.7-1.5,22.8-4.6c7.3-3.3,13.7-7.4,19-13.1c5.3-5.4,9.6-11.5,12.6-19
		c3-7.2,4.6-14.9,4.6-23.1C1198.8,565.9,1193,551.6,1181.1,540z"/>
</g>
</svg>
